<svg xmlns="http://www.w3.org/2000/svg" width="64pt" height="64pt" viewBox="0 0 22.578 22.578"><g stroke-width=".795"><path d="M1.304.97a.333.333 0 00-.334.334v19.972a.333.333 0 00.334.332h19.972a.333.333 0 00.332-.332V1.304a.333.333 0 00-.332-.334z" style="line-height:normal;font-variant-ligatures:normal;font-variant-position:normal;font-variant-caps:normal;font-variant-numeric:normal;font-variant-alternates:normal;font-variant-east-asian:normal;font-feature-settings:normal;font-variation-settings:normal;text-indent:0;text-align:start;text-decoration-line:none;text-decoration-style:solid;text-decoration-color:#000;text-transform:none;text-orientation:mixed;white-space:normal;shape-padding:0;shape-margin:0;inline-size:0;isolation:auto;mix-blend-mode:normal;solid-color:#000;solid-opacity:1" color="#000" font-weight="400" font-family="sans-serif" overflow="visible" fill="#66342d"/><path d="M2.636 11.622a.333.333 0 00-.334.334v7.988a.333.333 0 00.334.332h7.988a.333.333 0 00.332-.332v-7.988a.333.333 0 00-.332-.334H2.636zm0-9.32a.333.333 0 00-.334.332v7.99a.333.333 0 00.334.332h7.988a.333.333 0 00.332-.332v-7.99a.333.333 0 00-.332-.332z" style="line-height:normal;font-variant-ligatures:normal;font-variant-position:normal;font-variant-caps:normal;font-variant-numeric:normal;font-variant-alternates:normal;font-variant-east-asian:normal;font-feature-settings:normal;font-variation-settings:normal;text-indent:0;text-align:start;text-decoration-line:none;text-decoration-style:solid;text-decoration-color:#000;text-transform:none;text-orientation:mixed;white-space:normal;shape-padding:0;shape-margin:0;inline-size:0;isolation:auto;mix-blend-mode:normal;solid-color:#000;solid-opacity:1" color="#000" font-weight="400" font-family="sans-serif" overflow="visible" fill="#d0ad9b"/><path d="M2.636 4.3a.333.333 0 00-.334.331v5.993a.333.333 0 00.334.332h2.33a.333.333 0 00.334-.332V4.631a.333.333 0 00-.335-.331z" style="line-height:normal;font-variant-ligatures:normal;font-variant-position:normal;font-variant-caps:normal;font-variant-numeric:normal;font-variant-alternates:normal;font-variant-east-asian:normal;font-feature-settings:normal;font-variation-settings:normal;text-indent:0;text-align:start;text-decoration-line:none;text-decoration-style:solid;text-decoration-color:#000;text-transform:none;text-orientation:mixed;white-space:normal;shape-padding:0;shape-margin:0;inline-size:0;isolation:auto;mix-blend-mode:normal;solid-color:#000;solid-opacity:1" color="#000" font-weight="400" font-family="sans-serif" overflow="visible" fill="#dc1c4b"/><path d="M2.636 12.954a.333.333 0 00-.334.331v6.659a.333.333 0 00.334.332h1.998a.333.333 0 00.331-.332v-6.659a.333.333 0 00-.331-.331z" style="line-height:normal;font-variant-ligatures:normal;font-variant-position:normal;font-variant-caps:normal;font-variant-numeric:normal;font-variant-alternates:normal;font-variant-east-asian:normal;font-feature-settings:normal;font-variation-settings:normal;text-indent:0;text-align:start;text-decoration-line:none;text-decoration-style:solid;text-decoration-color:#000;text-transform:none;text-orientation:mixed;white-space:normal;shape-padding:0;shape-margin:0;inline-size:0;isolation:auto;mix-blend-mode:normal;solid-color:#000;solid-opacity:1" color="#000" font-weight="400" font-family="sans-serif" overflow="visible" fill="#fca311"/><path d="M2.636 16.949a.333.333 0 00-.334.332v1.331a.333.333 0 00.334.332h1.998a.333.333 0 00.331-.332v-1.331a.333.333 0 00-.331-.332z" style="line-height:normal;font-variant-ligatures:normal;font-variant-position:normal;font-variant-caps:normal;font-variant-numeric:normal;font-variant-alternates:normal;font-variant-east-asian:normal;font-feature-settings:normal;font-variation-settings:normal;text-indent:0;text-align:start;text-decoration-line:none;text-decoration-style:solid;text-decoration-color:#000;text-transform:none;text-orientation:mixed;white-space:normal;shape-padding:0;shape-margin:0;inline-size:0;isolation:auto;mix-blend-mode:normal;solid-color:#000;solid-opacity:1" color="#000" font-weight="400" font-family="sans-serif" overflow="visible" fill="#ca7d02"/><path d="M2.636 12.954a.333.333 0 00-.334.331v1.273l.076.002a.987.987 0 01.96.993l-.029 4.724h1.325a.335.335 0 00.332-.333v-6.658a.333.333 0 00-.332-.332z" fill="#ca7d02"/><path d="M3.33 16.949l-.013 1.995h1.317a.333.333 0 00.332-.332V17.28a.333.333 0 00-.332-.331z" fill="#b05e00"/><path d="M4.634 13.62a.333.333 0 00-.334.331v5.993a.333.333 0 00.334.332h1.995a.333.333 0 00.334-.332v-5.993a.333.333 0 00-.334-.332z" style="line-height:normal;font-variant-ligatures:normal;font-variant-position:normal;font-variant-caps:normal;font-variant-numeric:normal;font-variant-alternates:normal;font-variant-east-asian:normal;font-feature-settings:normal;font-variation-settings:normal;text-indent:0;text-align:start;text-decoration-line:none;text-decoration-style:solid;text-decoration-color:#000;text-transform:none;text-orientation:mixed;white-space:normal;shape-padding:0;shape-margin:0;inline-size:0;isolation:auto;mix-blend-mode:normal;solid-color:#000;solid-opacity:1" color="#000" font-weight="400" font-family="sans-serif" overflow="visible" fill="#9a605a"/><path d="M4.634 14.951a.333.333 0 00-.334.332v1.332a.333.333 0 00.334.334h1.995a.333.333 0 00.334-.334v-1.332a.333.333 0 00-.334-.332z" style="line-height:normal;font-variant-ligatures:normal;font-variant-position:normal;font-variant-caps:normal;font-variant-numeric:normal;font-variant-alternates:normal;font-variant-east-asian:normal;font-feature-settings:normal;font-variation-settings:normal;text-indent:0;text-align:start;text-decoration-line:none;text-decoration-style:solid;text-decoration-color:#000;text-transform:none;text-orientation:mixed;white-space:normal;shape-padding:0;shape-margin:0;inline-size:0;isolation:auto;mix-blend-mode:normal;solid-color:#000;solid-opacity:1" color="#000" font-weight="400" font-family="sans-serif" overflow="visible" fill="#66342d"/><path d="M4.634 13.62a.333.333 0 00-.335.331v.613l.05-.003a1.032 1.032 0 011.081 1.031v4.684h1.2a.333.333 0 00.334-.332V13.95a.333.333 0 00-.334-.332z" fill="#66342d"/><path d="M5.207 14.951a1.032 1.032 0 01.223.641v1.357h1.2a.333.333 0 00.334-.334v-1.332a.333.333 0 00-.334-.332z" fill="#311a12"/><path d="M6.629 12.954a.333.333 0 00-.332.331v6.659a.333.333 0 00.332.332h1.666a.333.333 0 00.332-.332v-6.659a.333.333 0 00-.332-.331z" style="line-height:normal;font-variant-ligatures:normal;font-variant-position:normal;font-variant-caps:normal;font-variant-numeric:normal;font-variant-alternates:normal;font-variant-east-asian:normal;font-feature-settings:normal;font-variation-settings:normal;text-indent:0;text-align:start;text-decoration-line:none;text-decoration-style:solid;text-decoration-color:#000;text-transform:none;text-orientation:mixed;white-space:normal;shape-padding:0;shape-margin:0;inline-size:0;isolation:auto;mix-blend-mode:normal;solid-color:#000;solid-opacity:1" color="#000" font-weight="400" font-family="sans-serif" overflow="visible" fill="#b557a1"/><path d="M6.629 12.954a.333.333 0 00-.332.331V14.6l.061.002a.804.804 0 01.778.799l.03 4.877h1.129a.333.333 0 00.331-.333v-6.658a.333.333 0 00-.331-.332z" fill="#612d82"/><path d="M8.295 12.954a.333.333 0 00-.334.331v6.659a.333.333 0 00.334.332h2.33a.333.333 0 00.33-.332v-6.659a.333.333 0 00-.33-.331z" style="line-height:normal;font-variant-ligatures:normal;font-variant-position:normal;font-variant-caps:normal;font-variant-numeric:normal;font-variant-alternates:normal;font-variant-east-asian:normal;font-feature-settings:normal;font-variation-settings:normal;text-indent:0;text-align:start;text-decoration-line:none;text-decoration-style:solid;text-decoration-color:#000;text-transform:none;text-orientation:mixed;white-space:normal;shape-padding:0;shape-margin:0;inline-size:0;isolation:auto;mix-blend-mode:normal;solid-color:#000;solid-opacity:1" color="#000" font-weight="400" font-family="sans-serif" overflow="visible" fill="#ee8eb4"/><path d="M8.295 16.949a.333.333 0 00-.334.332v1.331a.333.333 0 00.334.332h2.33a.333.333 0 00.33-.332v-1.331a.333.333 0 00-.33-.332z" style="line-height:normal;font-variant-ligatures:normal;font-variant-position:normal;font-variant-caps:normal;font-variant-numeric:normal;font-variant-alternates:normal;font-variant-east-asian:normal;font-feature-settings:normal;font-variation-settings:normal;text-indent:0;text-align:start;text-decoration-line:none;text-decoration-style:solid;text-decoration-color:#000;text-transform:none;text-orientation:mixed;white-space:normal;shape-padding:0;shape-margin:0;inline-size:0;isolation:auto;mix-blend-mode:normal;solid-color:#000;solid-opacity:1" color="#000" font-weight="400" font-family="sans-serif" overflow="visible" fill="#e75f96"/><path d="M11.956 2.302a.333.333 0 00-.334.332v7.99a.333.333 0 00.334.332h7.988a.333.333 0 00.334-.332v-7.99a.333.333 0 00-.002-.032.333.333 0 00-.332-.3zm0 9.32a.333.333 0 00-.334.334v7.988a.333.333 0 00.334.332h7.988a.333.333 0 00.334-.332v-7.988a.333.333 0 00-.334-.334z" style="line-height:normal;font-variant-ligatures:normal;font-variant-position:normal;font-variant-caps:normal;font-variant-numeric:normal;font-variant-alternates:normal;font-variant-east-asian:normal;font-feature-settings:normal;font-variation-settings:normal;text-indent:0;text-align:start;text-decoration-line:none;text-decoration-style:solid;text-decoration-color:#000;text-transform:none;text-orientation:mixed;white-space:normal;shape-padding:0;shape-margin:0;inline-size:0;isolation:auto;mix-blend-mode:normal;solid-color:#000;solid-opacity:1" color="#000" font-weight="400" font-family="sans-serif" overflow="visible" fill="#d0ad9b"/><path d="M2.636 5.631a.333.333 0 00-.334.332v1.332a.333.333 0 00.334.332h2.33a.333.333 0 00.334-.332V5.963a.333.333 0 00-.335-.332z" style="line-height:normal;font-variant-ligatures:normal;font-variant-position:normal;font-variant-caps:normal;font-variant-numeric:normal;font-variant-alternates:normal;font-variant-east-asian:normal;font-feature-settings:normal;font-variation-settings:normal;text-indent:0;text-align:start;text-decoration-line:none;text-decoration-style:solid;text-decoration-color:#000;text-transform:none;text-orientation:mixed;white-space:normal;shape-padding:0;shape-margin:0;inline-size:0;isolation:auto;mix-blend-mode:normal;solid-color:#000;solid-opacity:1" color="#000" font-weight="400" font-family="sans-serif" overflow="visible" fill="#b01d47"/><path d="M2.636 4.3a.333.333 0 00-.334.331v.476l.076-.001A1.135 1.135 0 013.537 6.24v4.716h1.429a.333.333 0 00.334-.331V4.63a.333.333 0 00-.334-.331z" fill="#b01d47"/><path d="M3.36 5.632a1.135 1.135 0 01.177.607v1.388h1.429a.333.333 0 00.334-.332V5.963a.333.333 0 00-.334-.331z" fill="#801231"/><path d="M4.965 3.634a.333.333 0 00-.331.331v6.659a.333.333 0 00.331.332H6.63a.333.333 0 00.334-.332V3.965a.333.333 0 00-.334-.331z" style="line-height:normal;font-variant-ligatures:normal;font-variant-position:normal;font-variant-caps:normal;font-variant-numeric:normal;font-variant-alternates:normal;font-variant-east-asian:normal;font-feature-settings:normal;font-variation-settings:normal;text-indent:0;text-align:start;text-decoration-line:none;text-decoration-style:solid;text-decoration-color:#000;text-transform:none;text-orientation:mixed;white-space:normal;shape-padding:0;shape-margin:0;inline-size:0;isolation:auto;mix-blend-mode:normal;solid-color:#000;solid-opacity:1" color="#000" font-weight="400" font-family="sans-serif" overflow="visible" fill="#fff79c"/><path d="M4.965 7.627a.333.333 0 00-.331.334v1.331a.333.333 0 00.331.332H6.63a.333.333 0 00.334-.332V7.961a.333.333 0 00-.334-.334z" style="line-height:normal;font-variant-ligatures:normal;font-variant-position:normal;font-variant-caps:normal;font-variant-numeric:normal;font-variant-alternates:normal;font-variant-east-asian:normal;font-feature-settings:normal;font-variation-settings:normal;text-indent:0;text-align:start;text-decoration-line:none;text-decoration-style:solid;text-decoration-color:#000;text-transform:none;text-orientation:mixed;white-space:normal;shape-padding:0;shape-margin:0;inline-size:0;isolation:auto;mix-blend-mode:normal;solid-color:#000;solid-opacity:1" color="#000" font-weight="400" font-family="sans-serif" overflow="visible" fill="#e8cf76"/><path d="M4.966 3.634a.333.333 0 00-.332.331v1.26l.063-.002a.79.79 0 01.816.784l.032 4.949h1.084a.333.333 0 00.334-.332v-6.66a.333.333 0 00-.334-.33z" fill="#e8cf76"/><path d="M15.949 3.73c-.548 0-.998.45-.998.997v3.234a.333.333 0 00.334.331h1.33a.333.333 0 00.334-.331V4.727c0-.547-.453-.997-1-.997z" style="line-height:normal;font-variant-ligatures:normal;font-variant-position:normal;font-variant-caps:normal;font-variant-numeric:normal;font-variant-alternates:normal;font-variant-east-asian:normal;font-feature-settings:normal;font-variation-settings:normal;text-indent:0;text-align:start;text-decoration-line:none;text-decoration-style:solid;text-decoration-color:#000;text-transform:none;text-orientation:mixed;white-space:normal;shape-padding:0;shape-margin:0;inline-size:0;isolation:auto;mix-blend-mode:normal;solid-color:#000;solid-opacity:1" color="#000" font-weight="400" font-family="sans-serif" overflow="visible" fill="#50b86b"/><path d="M13.954 7.627a.333.333 0 00-.325.415l.334 1.332a.333.333 0 00.138.196l.998.664a.333.333 0 00.186.056h1.33a.333.333 0 00.186-.056l.998-.664a.333.333 0 00.138-.196l.334-1.332a.333.333 0 00-.324-.415z" style="line-height:normal;font-variant-ligatures:normal;font-variant-position:normal;font-variant-caps:normal;font-variant-numeric:normal;font-variant-alternates:normal;font-variant-east-asian:normal;font-feature-settings:normal;font-variation-settings:normal;text-indent:0;text-align:start;text-decoration-line:none;text-decoration-style:solid;text-decoration-color:#000;text-transform:none;text-orientation:mixed;white-space:normal;shape-padding:0;shape-margin:0;inline-size:0;isolation:auto;mix-blend-mode:normal;solid-color:#000;solid-opacity:1" color="#000" font-weight="400" font-family="sans-serif" overflow="visible" fill="#ececec"/><path d="M16.615 4.727a.333.333 0 00-.332.334.333.333 0 00.332.332h.666a.333.333 0 00.334-.332.333.333 0 00-.334-.334zm-1.995.666a.333.333 0 00-.335.332.333.333 0 00.335.334h.665a.333.333 0 00.332-.334.333.333 0 00-.332-.332zm1.995.666a.333.333 0 00-.332.332.333.333 0 00.332.334h.666a.333.333 0 00.334-.334.333.333 0 00-.334-.332zM14.62 4.061a.333.333 0 00-.335.334.333.333 0 00.335.332h.754a.333.333 0 00.332-.332.333.333 0 00-.332-.334z" style="line-height:normal;font-variant-ligatures:normal;font-variant-position:normal;font-variant-caps:normal;font-variant-numeric:normal;font-variant-alternates:normal;font-variant-east-asian:normal;font-feature-settings:normal;font-variation-settings:normal;text-indent:0;text-align:start;text-decoration-line:none;text-decoration-style:solid;text-decoration-color:#000;text-transform:none;text-orientation:mixed;white-space:normal;shape-padding:0;shape-margin:0;inline-size:0;isolation:auto;mix-blend-mode:normal;solid-color:#000;solid-opacity:1" color="#000" font-weight="400" font-family="sans-serif" overflow="visible" fill="#87e59d"/><path d="M5.523 7.627l.013 1.997H6.63a.333.333 0 00.334-.332V7.961a.333.333 0 00-.334-.334z" fill="#cba158"/><path d="M6.629 4.3a.333.333 0 00-.332.331v5.993a.333.333 0 00.332.332h1.998a.333.333 0 00.334-.332V4.631a.333.333 0 00-.334-.331z" style="line-height:normal;font-variant-ligatures:normal;font-variant-position:normal;font-variant-caps:normal;font-variant-numeric:normal;font-variant-alternates:normal;font-variant-east-asian:normal;font-feature-settings:normal;font-variation-settings:normal;text-indent:0;text-align:start;text-decoration-line:none;text-decoration-style:solid;text-decoration-color:#000;text-transform:none;text-orientation:mixed;white-space:normal;shape-padding:0;shape-margin:0;inline-size:0;isolation:auto;mix-blend-mode:normal;solid-color:#000;solid-opacity:1" color="#000" font-weight="400" font-family="sans-serif" overflow="visible" fill="#50b86b"/><path d="M6.629 4.3a.333.333 0 00-.332.331v.66l.061.004a1.007 1.007 0 01.946.985l.092 4.676h1.23a.333.333 0 00.335-.331V4.63a.333.333 0 00-.335-.331z" fill="#349951"/><path d="M8.627 4.3a.333.333 0 00-.332.331v5.993a.333.333 0 00.332.332h1.997a.333.333 0 00.332-.332V4.631a.333.333 0 00-.332-.331z" style="line-height:normal;font-variant-ligatures:normal;font-variant-position:normal;font-variant-caps:normal;font-variant-numeric:normal;font-variant-alternates:normal;font-variant-east-asian:normal;font-feature-settings:normal;font-variation-settings:normal;text-indent:0;text-align:start;text-decoration-line:none;text-decoration-style:solid;text-decoration-color:#000;text-transform:none;text-orientation:mixed;white-space:normal;shape-padding:0;shape-margin:0;inline-size:0;isolation:auto;mix-blend-mode:normal;solid-color:#000;solid-opacity:1" color="#000" font-weight="400" font-family="sans-serif" overflow="visible" fill="#4895ef"/><path d="M8.627 5.631a.333.333 0 00-.332.332v1.332a.333.333 0 00.332.332h1.997a.333.333 0 00.332-.332V5.963a.333.333 0 00-.332-.332z" style="line-height:normal;font-variant-ligatures:normal;font-variant-position:normal;font-variant-caps:normal;font-variant-numeric:normal;font-variant-alternates:normal;font-variant-east-asian:normal;font-feature-settings:normal;font-variation-settings:normal;text-indent:0;text-align:start;text-decoration-line:none;text-decoration-style:solid;text-decoration-color:#000;text-transform:none;text-orientation:mixed;white-space:normal;shape-padding:0;shape-margin:0;inline-size:0;isolation:auto;mix-blend-mode:normal;solid-color:#000;solid-opacity:1" color="#000" font-weight="400" font-family="sans-serif" overflow="visible" fill="#4377d1"/><path d="M11.956 12.954a.333.333 0 00-.334.331v6.66a.333.333 0 00.334.33h1.998a.333.333 0 00.331-.33v-6.66a.333.333 0 00-.331-.331z" style="line-height:normal;font-variant-ligatures:normal;font-variant-position:normal;font-variant-caps:normal;font-variant-numeric:normal;font-variant-alternates:normal;font-variant-east-asian:normal;font-feature-settings:normal;font-variation-settings:normal;text-indent:0;text-align:start;text-decoration-line:none;text-decoration-style:solid;text-decoration-color:#000;text-transform:none;text-orientation:mixed;white-space:normal;shape-padding:0;shape-margin:0;inline-size:0;isolation:auto;mix-blend-mode:normal;solid-color:#000;solid-opacity:1" color="#000" font-weight="400" font-family="sans-serif" overflow="visible" fill="#7d8e9e"/><path d="M11.956 14.285a.333.333 0 00-.334.332v1.332a.333.333 0 00.334.334h1.998a.333.333 0 00.331-.334v-1.332a.333.333 0 00-.331-.332z" style="line-height:normal;font-variant-ligatures:normal;font-variant-position:normal;font-variant-caps:normal;font-variant-numeric:normal;font-variant-alternates:normal;font-variant-east-asian:normal;font-feature-settings:normal;font-variation-settings:normal;text-indent:0;text-align:start;text-decoration-line:none;text-decoration-style:solid;text-decoration-color:#000;text-transform:none;text-orientation:mixed;white-space:normal;shape-padding:0;shape-margin:0;inline-size:0;isolation:auto;mix-blend-mode:normal;solid-color:#000;solid-opacity:1" color="#000" font-weight="400" font-family="sans-serif" overflow="visible" fill="#5b6571"/><path d="M11.764 10.317a.333.333 0 00-.331.334.333.333 0 00.331.332h8.345a.333.333 0 00.331-.332.333.333 0 00-.331-.334z" style="line-height:normal;font-variant-ligatures:normal;font-variant-position:normal;font-variant-caps:normal;font-variant-numeric:normal;font-variant-alternates:normal;font-variant-east-asian:normal;font-feature-settings:normal;font-variation-settings:normal;text-indent:0;text-align:start;text-decoration-line:none;text-decoration-style:solid;text-decoration-color:#000;text-transform:none;text-orientation:mixed;white-space:normal;shape-padding:0;shape-margin:0;inline-size:0;isolation:auto;mix-blend-mode:normal;solid-color:#000;solid-opacity:1" color="#000" font-weight="400" font-family="sans-serif" overflow="visible" fill="#311a12"/><path d="M8.626 4.3a.333.333 0 00-.331.331v.758h.111a1.275 1.275 0 011.276 1.275v4.292h.942a.333.333 0 00.332-.332V4.631a.333.333 0 00-.332-.332z" fill="#4377d1"/><path d="M2.444 10.317a.333.333 0 00-.334.334.333.333 0 00.334.332h8.345a.333.333 0 00.332-.332.333.333 0 00-.332-.334z" style="line-height:normal;font-variant-ligatures:normal;font-variant-position:normal;font-variant-caps:normal;font-variant-numeric:normal;font-variant-alternates:normal;font-variant-east-asian:normal;font-feature-settings:normal;font-variation-settings:normal;text-indent:0;text-align:start;text-decoration-line:none;text-decoration-style:solid;text-decoration-color:#000;text-transform:none;text-orientation:mixed;white-space:normal;shape-padding:0;shape-margin:0;inline-size:0;isolation:auto;mix-blend-mode:normal;solid-color:#000;solid-opacity:1" color="#000" font-weight="400" font-family="sans-serif" overflow="visible" fill="#311a12"/><path d="M8.295 12.954a.333.333 0 00-.334.331v1.341h.098a1.476 1.476 0 011.477 1.467l.025 4.183h1.063a.333.333 0 00.332-.332v-6.659a.333.333 0 00-.332-.331z" fill="#e75f96"/><path d="M2.444 19.637a.333.333 0 00-.334.334.333.333 0 00.334.332h8.345a.333.333 0 00.332-.332.333.333 0 00-.332-.334z" style="line-height:normal;font-variant-ligatures:normal;font-variant-position:normal;font-variant-caps:normal;font-variant-numeric:normal;font-variant-alternates:normal;font-variant-east-asian:normal;font-feature-settings:normal;font-variation-settings:normal;text-indent:0;text-align:start;text-decoration-line:none;text-decoration-style:solid;text-decoration-color:#000;text-transform:none;text-orientation:mixed;white-space:normal;shape-padding:0;shape-margin:0;inline-size:0;isolation:auto;mix-blend-mode:normal;solid-color:#000;solid-opacity:1" color="#000" font-weight="400" font-family="sans-serif" overflow="visible" fill="#311a12"/><path d="M11.956 12.954a.333.333 0 00-.334.331v.613l.105.002a1.084 1.084 0 011.054 1.114l-.147 5.262h1.32a.334.334 0 00.331-.332v-6.659a.333.333 0 00-.332-.332z" fill="#5b6571"/><path d="M12.526 14.285a1.084 1.084 0 01.255.73l-.035 1.268h1.207a.333.333 0 00.332-.315.333.333 0 000-.02v-1.331a.333.333 0 00-.332-.332z" fill="#4d545c"/><path d="M13.954 13.62a.333.333 0 00-.335.331v5.993a.333.333 0 00.335.332h1.995a.333.333 0 00.334-.332v-5.993a.333.333 0 00-.334-.332z" style="line-height:normal;font-variant-ligatures:normal;font-variant-position:normal;font-variant-caps:normal;font-variant-numeric:normal;font-variant-alternates:normal;font-variant-east-asian:normal;font-feature-settings:normal;font-variation-settings:normal;text-indent:0;text-align:start;text-decoration-line:none;text-decoration-style:solid;text-decoration-color:#000;text-transform:none;text-orientation:mixed;white-space:normal;shape-padding:0;shape-margin:0;inline-size:0;isolation:auto;mix-blend-mode:normal;solid-color:#000;solid-opacity:1" color="#000" font-weight="400" font-family="sans-serif" overflow="visible" fill="#7e57c2"/><path d="M13.954 16.949a.333.333 0 00-.335.332v1.331a.333.333 0 00.335.332h1.995a.333.333 0 00.334-.332v-1.331a.333.333 0 00-.334-.332z" style="line-height:normal;font-variant-ligatures:normal;font-variant-position:normal;font-variant-caps:normal;font-variant-numeric:normal;font-variant-alternates:normal;font-variant-east-asian:normal;font-feature-settings:normal;font-variation-settings:normal;text-indent:0;text-align:start;text-decoration-line:none;text-decoration-style:solid;text-decoration-color:#000;text-transform:none;text-orientation:mixed;white-space:normal;shape-padding:0;shape-margin:0;inline-size:0;isolation:auto;mix-blend-mode:normal;solid-color:#000;solid-opacity:1" color="#000" font-weight="400" font-family="sans-serif" overflow="visible" fill="#623ba5"/><path d="M13.953 13.62a.333.333 0 00-.334.331v.405h.045a.991.991 0 01.991 1.003l-.06 4.917h1.354a.333.333 0 00.334-.332V13.95a.333.333 0 00-.334-.331z" fill="#623ba5"/><path d="M14.635 16.949l-.024 1.995h1.338a.333.333 0 00.334-.332V17.28a.333.333 0 00-.334-.331z" fill="#503187"/><path d="M15.949 12.954a.333.333 0 00-.332.331v6.66a.333.333 0 00.332.33h1.998a.333.333 0 00.334-.33v-6.66a.333.333 0 00-.334-.331z" style="line-height:normal;font-variant-ligatures:normal;font-variant-position:normal;font-variant-caps:normal;font-variant-numeric:normal;font-variant-alternates:normal;font-variant-east-asian:normal;font-feature-settings:normal;font-variation-settings:normal;text-indent:0;text-align:start;text-decoration-line:none;text-decoration-style:solid;text-decoration-color:#000;text-transform:none;text-orientation:mixed;white-space:normal;shape-padding:0;shape-margin:0;inline-size:0;isolation:auto;mix-blend-mode:normal;solid-color:#000;solid-opacity:1" color="#000" font-weight="400" font-family="sans-serif" overflow="visible" fill="#e07a5f"/><path d="M15.949 14.285a.333.333 0 00-.332.332v1.332a.333.333 0 00.332.334h1.998a.333.333 0 00.334-.334v-1.332a.333.333 0 00-.334-.332z" style="line-height:normal;font-variant-ligatures:normal;font-variant-position:normal;font-variant-caps:normal;font-variant-numeric:normal;font-variant-alternates:normal;font-variant-east-asian:normal;font-feature-settings:normal;font-variation-settings:normal;text-indent:0;text-align:start;text-decoration-line:none;text-decoration-style:solid;text-decoration-color:#000;text-transform:none;text-orientation:mixed;white-space:normal;shape-padding:0;shape-margin:0;inline-size:0;isolation:auto;mix-blend-mode:normal;solid-color:#000;solid-opacity:1" color="#000" font-weight="400" font-family="sans-serif" overflow="visible" fill="#db6443"/><path d="M15.949 12.954a.333.333 0 00-.332.331v.675l.057-.001a1.074 1.074 0 011.1 1.09l-.085 5.227h1.258a.333.333 0 00.334-.332v-6.658a.333.333 0 00-.334-.332z" fill="#db6443"/><path d="M16.471 14.285a1.074 1.074 0 01.303.765l-.02 1.233h1.193a.333.333 0 00.334-.334v-1.332a.333.333 0 00-.334-.332z" fill="#ce4b27"/><path d="M17.947 13.62a.333.333 0 00-.332.331v5.993a.333.333 0 00.332.332h1.997a.333.333 0 00.334-.332v-5.993a.333.333 0 00-.334-.332z" style="line-height:normal;font-variant-ligatures:normal;font-variant-position:normal;font-variant-caps:normal;font-variant-numeric:normal;font-variant-alternates:normal;font-variant-east-asian:normal;font-feature-settings:normal;font-variation-settings:normal;text-indent:0;text-align:start;text-decoration-line:none;text-decoration-style:solid;text-decoration-color:#000;text-transform:none;text-orientation:mixed;white-space:normal;shape-padding:0;shape-margin:0;inline-size:0;isolation:auto;mix-blend-mode:normal;solid-color:#000;solid-opacity:1" color="#000" font-weight="400" font-family="sans-serif" overflow="visible" fill="#a8c2e1"/><path d="M17.947 13.62a.333.333 0 00-.332.331v.52h.105a1.237 1.237 0 011.237 1.237v4.568h.987a.333.333 0 00.334-.332V13.95a.333.333 0 00-.334-.331z" fill="#91a9d9"/><path d="M11.764 19.637a.333.333 0 00-.331.334.333.333 0 00.331.332h8.345a.333.333 0 00.331-.332.333.333 0 00-.331-.334z" style="line-height:normal;font-variant-ligatures:normal;font-variant-position:normal;font-variant-caps:normal;font-variant-numeric:normal;font-variant-alternates:normal;font-variant-east-asian:normal;font-feature-settings:normal;font-variation-settings:normal;text-indent:0;text-align:start;text-decoration-line:none;text-decoration-style:solid;text-decoration-color:#000;text-transform:none;text-orientation:mixed;white-space:normal;shape-padding:0;shape-margin:0;inline-size:0;isolation:auto;mix-blend-mode:normal;solid-color:#000;solid-opacity:1" color="#000" font-weight="400" font-family="sans-serif" overflow="visible" fill="#311a12"/><path d="M17.947 14.951a.333.333 0 00-.332.332v1.332a.333.333 0 00.332.334h1.997a.333.333 0 00.334-.334v-1.332a.333.333 0 00-.334-.332z" style="line-height:normal;font-variant-ligatures:normal;font-variant-position:normal;font-variant-caps:normal;font-variant-numeric:normal;font-variant-alternates:normal;font-variant-east-asian:normal;font-feature-settings:normal;font-variation-settings:normal;text-indent:0;text-align:start;text-decoration-line:none;text-decoration-style:solid;text-decoration-color:#000;text-transform:none;text-orientation:mixed;white-space:normal;shape-padding:0;shape-margin:0;inline-size:0;isolation:auto;mix-blend-mode:normal;solid-color:#000;solid-opacity:1" color="#000" font-weight="400" font-family="sans-serif" overflow="visible" fill="#91a9d9"/><path d="M9.154 5.632a1.275 1.275 0 01.528 1.033v.962h.942a.333.333 0 00.332-.316.333.333 0 000-.016V5.963a.333.333 0 00-.332-.331z" fill="#2c5eb5"/><path d="M13.953 7.627a.333.333 0 00-.324.415l.103.408 1.36.015a1.446 1.446 0 011.43 1.446v.38h.092a.34.34 0 00.188-.057l.997-.664a.333.333 0 00.138-.196l.334-1.332a.333.333 0 00-.324-.415z" fill="#ccc"/><path d="M9.541 16.949l.012 1.995h1.071a.333.333 0 00.332-.315.333.333 0 000-.016V17.28a.333.333 0 00-.332-.331z" fill="#df2a72"/><path d="M18.698 14.951a1.237 1.237 0 01.259.757v1.24h.987a.333.333 0 00.334-.333v-1.332a.333.333 0 00-.334-.332z" fill="#6788cb"/></g></svg>